<mxfile host="app.diagrams.net" agent="Mozilla/5.0 (Windows NT 10.0; Win64; x64) AppleWebKit/537.36 (KHTML, like Gecko) Chrome/133.0.0.0 Safari/537.36" version="26.0.16">
  <diagram name="페이지-1" id="MKNNUns7rGQ7-kp-tXi3">
    <mxGraphModel dx="4358" dy="1865" grid="1" gridSize="10" guides="1" tooltips="1" connect="1" arrows="1" fold="1" page="1" pageScale="1" pageWidth="827" pageHeight="1169" math="0" shadow="0">
      <root>
        <mxCell id="0" />
        <mxCell id="1" parent="0" />
        <mxCell id="TarDjHIjxNcQHOsYSoX5-1" style="edgeStyle=orthogonalEdgeStyle;rounded=0;orthogonalLoop=1;jettySize=auto;html=1;exitX=0.5;exitY=1;exitDx=0;exitDy=0;entryX=0.5;entryY=0;entryDx=0;entryDy=0;" edge="1" parent="1" source="TarDjHIjxNcQHOsYSoX5-2" target="TarDjHIjxNcQHOsYSoX5-4">
          <mxGeometry relative="1" as="geometry" />
        </mxCell>
        <mxCell id="TarDjHIjxNcQHOsYSoX5-2" value="&lt;div&gt;검증 시스템&lt;/div&gt;&lt;div&gt;시작&lt;/div&gt;" style="ellipse;whiteSpace=wrap;html=1;fillColor=#ffe6cc;strokeColor=#d79b00;" vertex="1" parent="1">
          <mxGeometry x="1390" y="160" width="120" height="40" as="geometry" />
        </mxCell>
        <mxCell id="TarDjHIjxNcQHOsYSoX5-3" style="edgeStyle=orthogonalEdgeStyle;rounded=0;orthogonalLoop=1;jettySize=auto;html=1;exitX=0.5;exitY=1;exitDx=0;exitDy=0;entryX=0.5;entryY=0;entryDx=0;entryDy=0;" edge="1" parent="1" source="TarDjHIjxNcQHOsYSoX5-4" target="TarDjHIjxNcQHOsYSoX5-6">
          <mxGeometry relative="1" as="geometry" />
        </mxCell>
        <mxCell id="TarDjHIjxNcQHOsYSoX5-4" value="검증 타겟&amp;nbsp;&lt;div&gt;STB 확인&lt;/div&gt;" style="rounded=1;whiteSpace=wrap;html=1;fontSize=12;glass=0;strokeWidth=1;shadow=0;fillColor=#dae8fc;strokeColor=#6c8ebf;" vertex="1" parent="1">
          <mxGeometry x="1390" y="230" width="120" height="40" as="geometry" />
        </mxCell>
        <mxCell id="TarDjHIjxNcQHOsYSoX5-5" style="edgeStyle=orthogonalEdgeStyle;rounded=0;orthogonalLoop=1;jettySize=auto;html=1;exitX=0.5;exitY=1;exitDx=0;exitDy=0;entryX=0.5;entryY=0;entryDx=0;entryDy=0;" edge="1" parent="1" source="TarDjHIjxNcQHOsYSoX5-6" target="TarDjHIjxNcQHOsYSoX5-9">
          <mxGeometry relative="1" as="geometry" />
        </mxCell>
        <mxCell id="TarDjHIjxNcQHOsYSoX5-6" value="서버로부터&lt;div&gt;데이터 불러오기&lt;/div&gt;" style="rounded=1;whiteSpace=wrap;html=1;fontSize=12;glass=0;strokeWidth=1;shadow=0;fillColor=#dae8fc;strokeColor=#6c8ebf;" vertex="1" parent="1">
          <mxGeometry x="1390" y="300" width="120" height="40" as="geometry" />
        </mxCell>
        <mxCell id="TarDjHIjxNcQHOsYSoX5-7" value="No" style="edgeStyle=orthogonalEdgeStyle;rounded=0;orthogonalLoop=1;jettySize=auto;html=1;exitX=0;exitY=0.5;exitDx=0;exitDy=0;entryX=1;entryY=0.5;entryDx=0;entryDy=0;" edge="1" parent="1" source="TarDjHIjxNcQHOsYSoX5-9" target="TarDjHIjxNcQHOsYSoX5-22">
          <mxGeometry relative="1" as="geometry" />
        </mxCell>
        <mxCell id="TarDjHIjxNcQHOsYSoX5-8" value="Yes" style="edgeStyle=orthogonalEdgeStyle;rounded=0;orthogonalLoop=1;jettySize=auto;html=1;exitX=0.5;exitY=1;exitDx=0;exitDy=0;" edge="1" parent="1" source="TarDjHIjxNcQHOsYSoX5-9" target="TarDjHIjxNcQHOsYSoX5-11">
          <mxGeometry relative="1" as="geometry" />
        </mxCell>
        <mxCell id="TarDjHIjxNcQHOsYSoX5-9" value="데이터를 성공적으로&lt;div&gt;로드하였는가?&lt;/div&gt;" style="rhombus;whiteSpace=wrap;html=1;rounded=1;fillColor=#d5e8d4;strokeColor=#82b366;" vertex="1" parent="1">
          <mxGeometry x="1370" y="370" width="160" height="40" as="geometry" />
        </mxCell>
        <mxCell id="TarDjHIjxNcQHOsYSoX5-10" style="edgeStyle=orthogonalEdgeStyle;rounded=0;orthogonalLoop=1;jettySize=auto;html=1;exitX=1;exitY=0.5;exitDx=0;exitDy=0;" edge="1" parent="1" source="TarDjHIjxNcQHOsYSoX5-11" target="TarDjHIjxNcQHOsYSoX5-13">
          <mxGeometry relative="1" as="geometry" />
        </mxCell>
        <mxCell id="TarDjHIjxNcQHOsYSoX5-11" value="&lt;div&gt;데이터 전달&lt;/div&gt;&lt;div&gt;및&amp;nbsp;&lt;span style=&quot;background-color: transparent; color: light-dark(rgb(0, 0, 0), rgb(255, 255, 255));&quot;&gt;SCD 검증 요청&lt;/span&gt;&lt;/div&gt;" style="rounded=1;whiteSpace=wrap;html=1;fontSize=12;glass=0;strokeWidth=1;shadow=0;fillColor=#dae8fc;strokeColor=#6c8ebf;" vertex="1" parent="1">
          <mxGeometry x="1390" y="440" width="120" height="40" as="geometry" />
        </mxCell>
        <mxCell id="TarDjHIjxNcQHOsYSoX5-12" style="edgeStyle=orthogonalEdgeStyle;rounded=0;orthogonalLoop=1;jettySize=auto;html=1;exitX=0.5;exitY=1;exitDx=0;exitDy=0;" edge="1" parent="1" source="TarDjHIjxNcQHOsYSoX5-13" target="TarDjHIjxNcQHOsYSoX5-15">
          <mxGeometry relative="1" as="geometry" />
        </mxCell>
        <mxCell id="TarDjHIjxNcQHOsYSoX5-13" value="요청 확인" style="rounded=1;whiteSpace=wrap;html=1;fontSize=12;glass=0;strokeWidth=1;shadow=0;fillColor=#dae8fc;strokeColor=#6c8ebf;" vertex="1" parent="1">
          <mxGeometry x="1900" y="440" width="120" height="40" as="geometry" />
        </mxCell>
        <mxCell id="TarDjHIjxNcQHOsYSoX5-14" style="edgeStyle=orthogonalEdgeStyle;rounded=0;orthogonalLoop=1;jettySize=auto;html=1;exitX=0.5;exitY=1;exitDx=0;exitDy=0;" edge="1" parent="1" source="TarDjHIjxNcQHOsYSoX5-15" target="TarDjHIjxNcQHOsYSoX5-19">
          <mxGeometry relative="1" as="geometry" />
        </mxCell>
        <mxCell id="TarDjHIjxNcQHOsYSoX5-15" value="&lt;div&gt;이미지 내&lt;/div&gt;채널 번호 영역 탐지" style="rounded=1;whiteSpace=wrap;html=1;fontSize=12;glass=0;strokeWidth=1;shadow=0;fillColor=#dae8fc;strokeColor=#6c8ebf;" vertex="1" parent="1">
          <mxGeometry x="1900" y="510" width="120" height="40" as="geometry" />
        </mxCell>
        <mxCell id="TarDjHIjxNcQHOsYSoX5-16" value="STB 이미지 데이터" style="text;html=1;align=center;verticalAlign=middle;resizable=0;points=[];autosize=1;strokeColor=none;fillColor=none;" vertex="1" parent="1">
          <mxGeometry x="1465" y="340" width="130" height="30" as="geometry" />
        </mxCell>
        <mxCell id="TarDjHIjxNcQHOsYSoX5-17" value="Yes" style="edgeStyle=orthogonalEdgeStyle;rounded=0;orthogonalLoop=1;jettySize=auto;html=1;exitX=0.5;exitY=1;exitDx=0;exitDy=0;" edge="1" parent="1" source="TarDjHIjxNcQHOsYSoX5-19" target="TarDjHIjxNcQHOsYSoX5-28">
          <mxGeometry relative="1" as="geometry" />
        </mxCell>
        <mxCell id="TarDjHIjxNcQHOsYSoX5-18" value="No" style="edgeStyle=orthogonalEdgeStyle;rounded=0;orthogonalLoop=1;jettySize=auto;html=1;exitX=0;exitY=0.5;exitDx=0;exitDy=0;entryX=1;entryY=0.5;entryDx=0;entryDy=0;" edge="1" parent="1" source="TarDjHIjxNcQHOsYSoX5-19" target="TarDjHIjxNcQHOsYSoX5-26">
          <mxGeometry relative="1" as="geometry" />
        </mxCell>
        <mxCell id="TarDjHIjxNcQHOsYSoX5-19" value="채널 번호 영역 탐지를&lt;div&gt;성공하였는가?&lt;/div&gt;" style="rhombus;whiteSpace=wrap;html=1;rounded=1;fillColor=#d5e8d4;strokeColor=#82b366;" vertex="1" parent="1">
          <mxGeometry x="1880" y="580" width="160" height="40" as="geometry" />
        </mxCell>
        <mxCell id="TarDjHIjxNcQHOsYSoX5-20" value="&lt;div&gt;검증 시스템&lt;/div&gt;&lt;div&gt;종료&lt;/div&gt;" style="ellipse;whiteSpace=wrap;html=1;fillColor=#ffe6cc;strokeColor=#d79b00;" vertex="1" parent="1">
          <mxGeometry x="1390" y="1070" width="120" height="40" as="geometry" />
        </mxCell>
        <mxCell id="TarDjHIjxNcQHOsYSoX5-21" style="edgeStyle=orthogonalEdgeStyle;rounded=0;orthogonalLoop=1;jettySize=auto;html=1;exitX=0.5;exitY=1;exitDx=0;exitDy=0;entryX=0;entryY=0.5;entryDx=0;entryDy=0;" edge="1" parent="1" source="TarDjHIjxNcQHOsYSoX5-22" target="TarDjHIjxNcQHOsYSoX5-20">
          <mxGeometry relative="1" as="geometry" />
        </mxCell>
        <mxCell id="TarDjHIjxNcQHOsYSoX5-22" value="데이터 로드 실패report" style="rounded=1;whiteSpace=wrap;html=1;fontSize=12;glass=0;strokeWidth=1;shadow=0;fillColor=#dae8fc;strokeColor=#6c8ebf;" vertex="1" parent="1">
          <mxGeometry x="1180" y="370" width="120" height="40" as="geometry" />
        </mxCell>
        <mxCell id="TarDjHIjxNcQHOsYSoX5-23" value="검증 시스템" style="text;html=1;align=center;verticalAlign=middle;resizable=0;points=[];autosize=1;strokeColor=none;fillColor=none;" vertex="1" parent="1">
          <mxGeometry x="1590" y="10" width="90" height="30" as="geometry" />
        </mxCell>
        <mxCell id="TarDjHIjxNcQHOsYSoX5-24" value="Device&lt;div&gt;(SCD)&lt;/div&gt;" style="text;html=1;align=center;verticalAlign=middle;resizable=0;points=[];autosize=1;strokeColor=none;fillColor=none;" vertex="1" parent="1">
          <mxGeometry x="1795" y="83" width="60" height="40" as="geometry" />
        </mxCell>
        <mxCell id="TarDjHIjxNcQHOsYSoX5-25" style="edgeStyle=orthogonalEdgeStyle;rounded=0;orthogonalLoop=1;jettySize=auto;html=1;exitX=0;exitY=0.5;exitDx=0;exitDy=0;" edge="1" parent="1" source="TarDjHIjxNcQHOsYSoX5-26" target="TarDjHIjxNcQHOsYSoX5-30">
          <mxGeometry relative="1" as="geometry" />
        </mxCell>
        <mxCell id="TarDjHIjxNcQHOsYSoX5-26" value="탐지를 5회 이상&lt;div&gt;실패하였는가?&lt;/div&gt;" style="rhombus;whiteSpace=wrap;html=1;rounded=1;fillColor=#d5e8d4;strokeColor=#82b366;" vertex="1" parent="1">
          <mxGeometry x="1680" y="580" width="160" height="40" as="geometry" />
        </mxCell>
        <mxCell id="TarDjHIjxNcQHOsYSoX5-27" style="edgeStyle=orthogonalEdgeStyle;rounded=0;orthogonalLoop=1;jettySize=auto;html=1;exitX=0.5;exitY=1;exitDx=0;exitDy=0;entryX=0.5;entryY=0;entryDx=0;entryDy=0;" edge="1" parent="1" source="TarDjHIjxNcQHOsYSoX5-28" target="TarDjHIjxNcQHOsYSoX5-32">
          <mxGeometry relative="1" as="geometry" />
        </mxCell>
        <mxCell id="TarDjHIjxNcQHOsYSoX5-28" value="이미지 별 채널 번호 검출" style="rounded=1;whiteSpace=wrap;html=1;fontSize=12;glass=0;strokeWidth=1;shadow=0;fillColor=#dae8fc;strokeColor=#6c8ebf;" vertex="1" parent="1">
          <mxGeometry x="1900" y="650" width="120" height="40" as="geometry" />
        </mxCell>
        <mxCell id="TarDjHIjxNcQHOsYSoX5-29" style="edgeStyle=orthogonalEdgeStyle;rounded=0;orthogonalLoop=1;jettySize=auto;html=1;exitX=0.5;exitY=1;exitDx=0;exitDy=0;" edge="1" parent="1" source="TarDjHIjxNcQHOsYSoX5-30" target="TarDjHIjxNcQHOsYSoX5-20">
          <mxGeometry relative="1" as="geometry" />
        </mxCell>
        <mxCell id="TarDjHIjxNcQHOsYSoX5-30" value="채널 번호 영역 탐지 실패 report" style="rounded=1;whiteSpace=wrap;html=1;fontSize=12;glass=0;strokeWidth=1;shadow=0;fillColor=#dae8fc;strokeColor=#6c8ebf;" vertex="1" parent="1">
          <mxGeometry x="1390" y="580" width="120" height="40" as="geometry" />
        </mxCell>
        <mxCell id="TarDjHIjxNcQHOsYSoX5-31" style="edgeStyle=orthogonalEdgeStyle;rounded=0;orthogonalLoop=1;jettySize=auto;html=1;exitX=0.5;exitY=1;exitDx=0;exitDy=0;" edge="1" parent="1" source="TarDjHIjxNcQHOsYSoX5-32" target="TarDjHIjxNcQHOsYSoX5-40">
          <mxGeometry relative="1" as="geometry" />
        </mxCell>
        <mxCell id="TarDjHIjxNcQHOsYSoX5-32" value="SCD 검출 결과 정리 및 이미지 데이터 삭제" style="rounded=1;whiteSpace=wrap;html=1;fontSize=12;glass=0;strokeWidth=1;shadow=0;fillColor=#dae8fc;strokeColor=#6c8ebf;" vertex="1" parent="1">
          <mxGeometry x="1900" y="720" width="120" height="40" as="geometry" />
        </mxCell>
        <mxCell id="TarDjHIjxNcQHOsYSoX5-33" style="edgeStyle=orthogonalEdgeStyle;rounded=0;orthogonalLoop=1;jettySize=auto;html=1;exitX=0.5;exitY=1;exitDx=0;exitDy=0;" edge="1" parent="1" source="TarDjHIjxNcQHOsYSoX5-34" target="TarDjHIjxNcQHOsYSoX5-36">
          <mxGeometry relative="1" as="geometry" />
        </mxCell>
        <mxCell id="TarDjHIjxNcQHOsYSoX5-34" value="채널 번호 영역 및 SCD 검출 결과 확인" style="rounded=1;whiteSpace=wrap;html=1;fontSize=12;glass=0;strokeWidth=1;shadow=0;fillColor=#dae8fc;strokeColor=#6c8ebf;" vertex="1" parent="1">
          <mxGeometry x="1550" y="790" width="120" height="40" as="geometry" />
        </mxCell>
        <mxCell id="TarDjHIjxNcQHOsYSoX5-35" style="edgeStyle=orthogonalEdgeStyle;rounded=0;orthogonalLoop=1;jettySize=auto;html=1;exitX=0.5;exitY=1;exitDx=0;exitDy=0;" edge="1" parent="1" source="TarDjHIjxNcQHOsYSoX5-36" target="TarDjHIjxNcQHOsYSoX5-42">
          <mxGeometry relative="1" as="geometry" />
        </mxCell>
        <mxCell id="TarDjHIjxNcQHOsYSoX5-36" value="easyOCR 이용하여 cross 검증 진행" style="rounded=1;whiteSpace=wrap;html=1;fontSize=12;glass=0;strokeWidth=1;shadow=0;fillColor=#dae8fc;strokeColor=#6c8ebf;" vertex="1" parent="1">
          <mxGeometry x="1550" y="860" width="120" height="40" as="geometry" />
        </mxCell>
        <mxCell id="TarDjHIjxNcQHOsYSoX5-37" style="edgeStyle=orthogonalEdgeStyle;rounded=0;orthogonalLoop=1;jettySize=auto;html=1;exitX=0.5;exitY=1;exitDx=0;exitDy=0;entryX=1;entryY=0.5;entryDx=0;entryDy=0;" edge="1" parent="1" source="TarDjHIjxNcQHOsYSoX5-38" target="TarDjHIjxNcQHOsYSoX5-20">
          <mxGeometry relative="1" as="geometry" />
        </mxCell>
        <mxCell id="TarDjHIjxNcQHOsYSoX5-38" value="SCD 검출 및 cross 검증 결과 report" style="rounded=1;whiteSpace=wrap;html=1;fontSize=12;glass=0;strokeWidth=1;shadow=0;fillColor=#dae8fc;strokeColor=#6c8ebf;" vertex="1" parent="1">
          <mxGeometry x="1550" y="1000" width="120" height="40" as="geometry" />
        </mxCell>
        <mxCell id="TarDjHIjxNcQHOsYSoX5-39" style="edgeStyle=orthogonalEdgeStyle;rounded=0;orthogonalLoop=1;jettySize=auto;html=1;exitX=0;exitY=0.5;exitDx=0;exitDy=0;" edge="1" parent="1" source="TarDjHIjxNcQHOsYSoX5-40" target="TarDjHIjxNcQHOsYSoX5-34">
          <mxGeometry relative="1" as="geometry" />
        </mxCell>
        <mxCell id="TarDjHIjxNcQHOsYSoX5-40" value="채널 번호 영역 및 SCD 검출 결과 전달" style="rounded=1;whiteSpace=wrap;html=1;fontSize=12;glass=0;strokeWidth=1;shadow=0;fillColor=#dae8fc;strokeColor=#6c8ebf;" vertex="1" parent="1">
          <mxGeometry x="1900" y="790" width="120" height="40" as="geometry" />
        </mxCell>
        <mxCell id="TarDjHIjxNcQHOsYSoX5-41" style="edgeStyle=orthogonalEdgeStyle;rounded=0;orthogonalLoop=1;jettySize=auto;html=1;exitX=0.5;exitY=1;exitDx=0;exitDy=0;" edge="1" parent="1" source="TarDjHIjxNcQHOsYSoX5-42" target="TarDjHIjxNcQHOsYSoX5-38">
          <mxGeometry relative="1" as="geometry" />
        </mxCell>
        <mxCell id="TarDjHIjxNcQHOsYSoX5-42" value="cross 검증 결과 정리 및 이미지 데이터 삭제" style="rounded=1;whiteSpace=wrap;html=1;fontSize=12;glass=0;strokeWidth=1;shadow=0;fillColor=#dae8fc;strokeColor=#6c8ebf;" vertex="1" parent="1">
          <mxGeometry x="1550" y="930" width="120" height="40" as="geometry" />
        </mxCell>
        <mxCell id="TarDjHIjxNcQHOsYSoX5-43" value="Client W/S&lt;div&gt;(Python)&lt;/div&gt;" style="text;html=1;align=center;verticalAlign=middle;resizable=0;points=[];autosize=1;strokeColor=none;fillColor=none;" vertex="1" parent="1">
          <mxGeometry x="1410" y="83" width="80" height="40" as="geometry" />
        </mxCell>
      </root>
    </mxGraphModel>
  </diagram>
</mxfile>
